<svg width="342" height="331" viewBox="0 0 342 331" fill="none" xmlns="http://www.w3.org/2000/svg">
<path d="M147.117 330.958C218.854 330.958 277.008 327.335 277.008 322.866C277.008 318.397 218.854 314.774 147.117 314.774C75.3801 314.774 17.2257 318.397 17.2257 322.866C17.2257 327.335 75.3801 330.958 147.117 330.958Z" fill="#5A9DFF"/>
<path opacity="0.8" d="M147.117 330.958C218.854 330.958 277.008 327.335 277.008 322.866C277.008 318.397 218.854 314.774 147.117 314.774C75.3801 314.774 17.2257 318.397 17.2257 322.866C17.2257 327.335 75.3801 330.958 147.117 330.958Z" fill="white"/>
<path d="M244.725 15.162H114.119C105.102 15.162 97.7923 22.4718 97.7923 31.4888V307.22C97.7923 316.237 105.102 323.547 114.119 323.547H244.725C253.742 323.547 261.051 316.237 261.051 307.22V31.4888C261.051 22.4718 253.742 15.162 244.725 15.162Z" fill="#263238"/>
<path d="M253.791 49.0256H105.044V289.683H253.791V49.0256Z" fill="white" stroke="#263238" stroke-width="1.33739" stroke-miterlimit="10"/>
<path d="M202.22 146.475C214.811 133.884 214.811 113.469 202.22 100.878C189.629 88.287 169.215 88.287 156.623 100.878C144.032 113.469 144.032 133.884 156.623 146.475C169.215 159.066 189.629 159.066 202.22 146.475Z" fill="#5A9DFF"/>
<path d="M221.751 274.55H137.101C136.91 274.551 136.722 274.514 136.545 274.442C136.369 274.37 136.209 274.264 136.073 274.13C135.938 273.995 135.831 273.836 135.758 273.66C135.685 273.484 135.647 273.295 135.647 273.105C135.646 272.913 135.683 272.724 135.756 272.547C135.828 272.37 135.935 272.209 136.07 272.074C136.206 271.939 136.366 271.832 136.543 271.759C136.72 271.687 136.91 271.65 137.101 271.651H221.751C221.942 271.651 222.13 271.689 222.306 271.762C222.482 271.835 222.642 271.942 222.776 272.077C222.911 272.212 223.017 272.373 223.089 272.549C223.161 272.725 223.198 272.914 223.197 273.105C223.197 273.488 223.044 273.856 222.773 274.127C222.502 274.398 222.135 274.55 221.751 274.55Z" fill="#5A9DFF"/>
<path d="M224.507 174.043H134.336C132.475 174.043 130.967 175.552 130.967 177.413V188.042C130.967 189.903 132.475 191.412 134.336 191.412H224.507C226.368 191.412 227.877 189.903 227.877 188.042V177.413C227.877 175.552 226.368 174.043 224.507 174.043Z" fill="#5A9DFF"/>
<path d="M224.507 206.529H134.336C132.475 206.529 130.967 208.037 130.967 209.898V220.528C130.967 222.389 132.475 223.897 134.336 223.897H224.507C226.368 223.897 227.877 222.389 227.877 220.528V209.898C227.877 208.037 226.368 206.529 224.507 206.529Z" fill="#5A9DFF"/>
<path d="M195.476 139.76L185.989 134.298V129.785C187.362 128.124 188.357 126.182 188.905 124.097C189.231 124.213 189.575 124.272 189.921 124.273C191.098 124.273 191.846 120.626 191.972 118.021C193.341 115.122 191.476 113.425 191.476 113.425C191.476 113.425 192.249 112.652 192.761 109.551C193.274 106.451 190.955 107.745 189.148 104.905C187.342 102.064 186.048 98.9722 180.115 98.9722C178.48 98.9184 176.867 99.3576 175.486 100.233C174.104 101.108 173.018 102.379 172.368 103.879C170.891 103.885 169.42 104.057 167.981 104.392C166.166 104.905 165.654 110.845 167.2 113.173C167.892 114.445 168.261 115.868 168.276 117.316C167.864 116.811 167.435 116.677 167.2 117.82C166.687 120.399 168.754 124.013 168.754 124.013L169.822 123.71C170.359 125.939 171.397 128.016 172.855 129.785V134.298L163.368 139.76C162.26 140.399 161.34 141.319 160.7 142.427C160.06 143.534 159.722 144.791 159.721 146.07V149.196C165.364 153.555 172.292 155.919 179.422 155.919C186.552 155.919 193.48 153.555 199.122 149.196V146.07C199.123 144.791 198.786 143.533 198.146 142.425C197.506 141.317 196.585 140.398 195.476 139.76Z" fill="#263238"/>
<path d="M143.243 219.578C143.026 219.575 142.818 219.488 142.664 219.335C142.581 219.261 142.515 219.17 142.47 219.069C142.425 218.967 142.402 218.857 142.403 218.747C142.406 218.595 142.449 218.447 142.529 218.318L144.042 215.898L141.092 215.99C140.981 215.997 140.87 215.981 140.766 215.942C140.661 215.903 140.566 215.842 140.487 215.764C140.35 215.61 140.275 215.411 140.275 215.205C140.275 214.999 140.35 214.8 140.487 214.646C140.565 214.565 140.659 214.502 140.764 214.461C140.868 214.42 140.98 214.403 141.092 214.411L144 214.52L142.504 212.108C142.423 211.977 142.379 211.826 142.378 211.671C142.377 211.56 142.4 211.451 142.445 211.349C142.49 211.248 142.556 211.157 142.638 211.083C142.793 210.93 143.001 210.843 143.218 210.839C143.361 210.84 143.501 210.882 143.622 210.959C143.742 211.037 143.838 211.147 143.899 211.276L145.336 213.873L146.756 211.293C146.823 211.156 146.927 211.039 147.056 210.956C147.185 210.873 147.334 210.827 147.487 210.823C147.593 210.823 147.698 210.846 147.795 210.889C147.892 210.933 147.979 210.996 148.05 211.075C148.204 211.235 148.289 211.449 148.285 211.671C148.285 211.816 148.247 211.957 148.176 212.083L146.655 214.52L149.604 214.411C149.716 214.403 149.829 214.42 149.933 214.461C150.038 214.502 150.132 214.565 150.209 214.646C150.353 214.795 150.431 214.994 150.428 215.201C150.427 215.409 150.349 215.609 150.209 215.764C150.13 215.842 150.035 215.903 149.931 215.942C149.827 215.981 149.716 215.997 149.604 215.99L146.638 215.898L148.117 218.293C148.2 218.426 148.244 218.581 148.243 218.738C148.243 218.961 148.155 219.175 147.997 219.332C147.839 219.49 147.626 219.578 147.403 219.578C147.259 219.576 147.118 219.533 146.999 219.452C146.88 219.371 146.786 219.258 146.731 219.125L145.327 216.604L143.932 219.125C143.871 219.256 143.773 219.369 143.652 219.449C143.53 219.529 143.389 219.574 143.243 219.578Z" fill="#263238"/>
<path d="M156.873 219.578C156.655 219.575 156.447 219.488 156.293 219.335C156.21 219.261 156.144 219.17 156.099 219.069C156.055 218.967 156.032 218.857 156.033 218.747C156.035 218.595 156.079 218.447 156.159 218.318L157.671 215.898L154.73 215.99C154.618 215.995 154.506 215.978 154.4 215.939C154.295 215.9 154.199 215.84 154.117 215.764C154.005 215.648 153.931 215.502 153.903 215.345C153.876 215.187 153.897 215.024 153.963 214.878C154.029 214.732 154.138 214.61 154.274 214.526C154.411 214.443 154.57 214.403 154.73 214.411L157.629 214.52L156.133 212.108C156.052 211.977 156.008 211.826 156.007 211.671C156.007 211.56 156.029 211.451 156.074 211.349C156.119 211.248 156.185 211.157 156.268 211.083C156.422 210.93 156.63 210.843 156.848 210.839C156.991 210.84 157.131 210.882 157.251 210.959C157.372 211.037 157.468 211.147 157.528 211.276L158.965 213.873L160.385 211.293C160.453 211.156 160.556 211.039 160.685 210.956C160.814 210.873 160.963 210.827 161.116 210.823C161.223 210.822 161.328 210.844 161.425 210.888C161.522 210.931 161.609 210.995 161.679 211.075C161.757 211.153 161.819 211.246 161.861 211.349C161.902 211.451 161.924 211.561 161.923 211.671C161.92 211.816 161.879 211.958 161.805 212.083L160.284 214.52L163.242 214.427C163.353 214.42 163.464 214.437 163.567 214.478C163.67 214.519 163.763 214.582 163.839 214.663C163.982 214.811 164.061 215.011 164.057 215.217C164.057 215.426 163.979 215.626 163.839 215.78C163.761 215.858 163.668 215.919 163.565 215.958C163.462 215.997 163.352 216.014 163.242 216.007L160.268 215.915L161.746 218.31C161.829 218.443 161.873 218.598 161.873 218.755C161.873 218.978 161.784 219.192 161.626 219.349C161.469 219.507 161.255 219.595 161.032 219.595C160.888 219.593 160.748 219.549 160.628 219.469C160.509 219.388 160.416 219.274 160.36 219.141L158.957 216.621L157.562 219.141C157.498 219.27 157.4 219.379 157.278 219.456C157.157 219.533 157.017 219.575 156.873 219.578Z" fill="#263238"/>
<path d="M170.511 219.578C170.29 219.577 170.079 219.49 169.922 219.335C169.84 219.261 169.774 219.17 169.729 219.069C169.684 218.967 169.661 218.857 169.662 218.747C169.665 218.595 169.708 218.447 169.788 218.318L171.301 215.898L168.36 215.99C168.201 215.997 168.044 215.956 167.909 215.873C167.774 215.79 167.667 215.668 167.601 215.524C167.536 215.38 167.514 215.219 167.54 215.063C167.566 214.907 167.638 214.761 167.746 214.646C167.825 214.565 167.921 214.502 168.027 214.461C168.133 214.421 168.246 214.404 168.36 214.411L171.259 214.52L169.763 212.108C169.681 211.977 169.638 211.826 169.637 211.671C169.639 211.561 169.664 211.452 169.708 211.351C169.753 211.25 169.817 211.159 169.897 211.083C170.054 210.928 170.265 210.84 170.485 210.839C170.627 210.842 170.765 210.884 170.884 210.962C171.003 211.039 171.098 211.148 171.158 211.276L172.595 213.873L174.015 211.293C174.082 211.156 174.186 211.039 174.315 210.956C174.443 210.873 174.593 210.827 174.746 210.823C174.852 210.822 174.957 210.844 175.054 210.888C175.151 210.931 175.238 210.995 175.309 211.075C175.387 211.153 175.448 211.246 175.49 211.349C175.532 211.451 175.553 211.561 175.552 211.671C175.549 211.816 175.509 211.958 175.435 212.083L173.914 214.52L176.872 214.411C176.98 214.4 177.09 214.412 177.194 214.447C177.297 214.483 177.392 214.539 177.472 214.614C177.551 214.689 177.614 214.78 177.655 214.881C177.697 214.982 177.716 215.091 177.712 215.201C177.714 215.408 177.639 215.608 177.502 215.764C177.423 215.842 177.328 215.903 177.224 215.942C177.119 215.981 177.008 215.997 176.897 215.99L173.931 215.898L175.401 218.293C175.484 218.427 175.528 218.581 175.527 218.738C175.525 218.848 175.5 218.957 175.455 219.058C175.411 219.159 175.347 219.25 175.267 219.326C175.194 219.405 175.105 219.468 175.007 219.511C174.909 219.555 174.803 219.577 174.695 219.578C174.552 219.576 174.413 219.532 174.295 219.451C174.177 219.37 174.086 219.257 174.031 219.125L172.62 216.604L171.225 219.125C171.162 219.261 171.061 219.376 170.935 219.457C170.808 219.537 170.661 219.579 170.511 219.578Z" fill="#263238"/>
<path d="M184.14 219.578C183.92 219.577 183.708 219.49 183.552 219.335C183.394 219.18 183.303 218.968 183.3 218.747C183.297 218.595 183.338 218.447 183.417 218.318L184.93 215.898L181.989 215.99C181.877 215.995 181.765 215.978 181.659 215.939C181.554 215.9 181.457 215.84 181.376 215.764C181.239 215.61 181.163 215.411 181.163 215.205C181.163 214.999 181.239 214.8 181.376 214.646C181.457 214.568 181.553 214.506 181.658 214.466C181.764 214.425 181.876 214.407 181.989 214.411L184.896 214.52L183.409 212.108C183.328 211.977 183.284 211.826 183.283 211.671C183.286 211.561 183.31 211.452 183.355 211.351C183.399 211.25 183.464 211.159 183.544 211.083C183.7 210.928 183.911 210.84 184.132 210.839C184.275 210.84 184.415 210.882 184.535 210.959C184.656 211.037 184.752 211.147 184.812 211.276L186.241 213.873L187.661 211.293C187.728 211.156 187.832 211.039 187.961 210.956C188.09 210.873 188.239 210.827 188.392 210.823C188.498 210.822 188.604 210.844 188.701 210.888C188.798 210.931 188.884 210.995 188.955 211.075C189.033 211.153 189.094 211.246 189.136 211.349C189.178 211.451 189.199 211.561 189.199 211.671C189.196 211.816 189.155 211.958 189.081 212.083L187.56 214.52L190.518 214.411C190.627 214.4 190.736 214.412 190.84 214.447C190.943 214.483 191.038 214.539 191.118 214.614C191.197 214.689 191.26 214.78 191.302 214.881C191.343 214.982 191.362 215.091 191.358 215.201C191.36 215.408 191.285 215.608 191.148 215.764C191.069 215.842 190.974 215.903 190.87 215.942C190.766 215.981 190.654 215.997 190.543 215.99L187.577 215.898L189.047 218.293C189.13 218.427 189.174 218.581 189.173 218.738C189.174 218.849 189.151 218.959 189.107 219.06C189.062 219.162 188.996 219.252 188.913 219.326C188.84 219.405 188.751 219.468 188.653 219.511C188.555 219.555 188.449 219.577 188.342 219.578C188.199 219.576 188.06 219.532 187.942 219.451C187.824 219.37 187.732 219.257 187.678 219.125L186.266 216.604L184.871 219.125C184.807 219.264 184.704 219.381 184.574 219.461C184.444 219.542 184.293 219.583 184.14 219.578Z" fill="#263238"/>
<path d="M197.77 219.578C197.549 219.577 197.338 219.49 197.181 219.335C197.051 219.203 196.968 219.032 196.945 218.848C196.923 218.664 196.961 218.478 197.055 218.318L198.559 215.898L195.618 215.99C195.506 215.995 195.394 215.978 195.289 215.939C195.183 215.9 195.087 215.84 195.005 215.764C194.868 215.61 194.792 215.411 194.792 215.205C194.792 214.999 194.868 214.8 195.005 214.646C195.086 214.568 195.182 214.506 195.288 214.466C195.393 214.425 195.506 214.407 195.618 214.411L198.526 214.52L197.03 212.108C196.949 211.977 196.905 211.826 196.904 211.671C196.907 211.45 196.998 211.238 197.156 211.083C197.313 210.928 197.524 210.84 197.744 210.839C197.888 210.84 198.027 210.882 198.148 210.959C198.268 211.037 198.365 211.147 198.425 211.276L199.853 213.873L201.274 211.293C201.341 211.156 201.445 211.039 201.573 210.956C201.702 210.873 201.851 210.827 202.005 210.823C202.112 210.822 202.219 210.844 202.317 210.888C202.416 210.931 202.504 210.995 202.576 211.075C202.73 211.235 202.815 211.449 202.811 211.671C202.808 211.816 202.768 211.958 202.694 212.083L201.173 214.52L204.131 214.411C204.239 214.4 204.349 214.412 204.453 214.447C204.556 214.483 204.651 214.539 204.73 214.614C204.81 214.689 204.873 214.78 204.914 214.881C204.956 214.982 204.975 215.091 204.971 215.201C204.973 215.408 204.898 215.608 204.761 215.764C204.682 215.842 204.587 215.903 204.482 215.942C204.378 215.981 204.267 215.997 204.156 215.99L201.19 215.898L202.66 218.293C202.743 218.427 202.787 218.581 202.786 218.738C202.787 218.849 202.764 218.959 202.719 219.06C202.674 219.162 202.608 219.252 202.526 219.326C202.452 219.405 202.364 219.468 202.266 219.511C202.168 219.555 202.062 219.577 201.954 219.578C201.811 219.576 201.672 219.532 201.554 219.451C201.436 219.37 201.345 219.257 201.29 219.125L199.879 216.604L198.484 219.125C198.421 219.261 198.32 219.376 198.193 219.457C198.067 219.537 197.92 219.579 197.77 219.578Z" fill="#263238"/>
<path d="M211.399 219.578C211.181 219.575 210.974 219.488 210.819 219.335C210.737 219.261 210.671 219.17 210.626 219.069C210.581 218.967 210.558 218.857 210.559 218.747C210.561 218.595 210.605 218.447 210.685 218.318L212.189 215.898L209.248 215.99C209.14 215.999 209.031 215.984 208.929 215.948C208.826 215.912 208.733 215.855 208.654 215.781C208.575 215.706 208.512 215.616 208.47 215.516C208.427 215.417 208.406 215.309 208.408 215.201C208.407 215.098 208.427 214.996 208.466 214.901C208.505 214.805 208.562 214.719 208.634 214.646C208.712 214.565 208.806 214.502 208.911 214.461C209.015 214.42 209.128 214.403 209.239 214.411L212.147 214.52L210.651 212.108C210.57 211.977 210.526 211.826 210.525 211.671C210.528 211.45 210.619 211.238 210.777 211.083C210.934 210.928 211.145 210.84 211.365 210.839C211.509 210.84 211.649 210.882 211.769 210.959C211.89 211.037 211.986 211.147 212.046 211.276L213.474 213.873L214.903 211.293C214.97 211.157 215.072 211.041 215.199 210.958C215.327 210.875 215.474 210.828 215.626 210.823C215.733 210.822 215.84 210.844 215.938 210.888C216.037 210.931 216.125 210.995 216.197 211.075C216.351 211.235 216.436 211.449 216.432 211.671C216.432 211.816 216.394 211.957 216.323 212.083L214.802 214.52L217.752 214.411C217.863 214.403 217.976 214.42 218.08 214.461C218.185 214.502 218.279 214.565 218.357 214.646C218.5 214.795 218.578 214.994 218.575 215.201C218.574 215.409 218.497 215.609 218.357 215.764C218.277 215.842 218.183 215.903 218.078 215.942C217.974 215.981 217.863 215.997 217.752 215.99L214.785 215.898L216.256 218.293C216.339 218.427 216.382 218.581 216.382 218.738C216.379 218.96 216.288 219.171 216.13 219.326C215.977 219.483 215.769 219.573 215.55 219.578C215.407 219.576 215.268 219.532 215.15 219.451C215.032 219.37 214.94 219.257 214.886 219.125L213.474 216.604L212.08 219.125C212.019 219.256 211.924 219.368 211.803 219.448C211.683 219.528 211.543 219.573 211.399 219.578Z" fill="#263238"/>
<g style="mix-blend-mode:multiply">
<path d="M253.791 49.3449H105.044V58.6636H253.791V49.3449Z" fill="#5A9DFF"/>
</g>
<path d="M195.593 32.1778H163.242C162.658 32.1778 162.098 31.9459 161.685 31.533C161.273 31.1201 161.041 30.5602 161.041 29.9763C161.041 29.3924 161.273 28.8324 161.685 28.4196C162.098 28.0067 162.658 27.7747 163.242 27.7747H195.593C196.177 27.7747 196.737 28.0067 197.15 28.4196C197.563 28.8324 197.795 29.3924 197.795 29.9763C197.795 30.5602 197.563 31.1201 197.15 31.533C196.737 31.9459 196.177 32.1778 195.593 32.1778Z" fill="#5A9DFF" stroke="#263238" stroke-width="1.33739" stroke-linecap="round" stroke-linejoin="round"/>
<path d="M188.241 303.279C188.242 301.533 187.726 299.827 186.757 298.374C185.788 296.922 184.411 295.79 182.798 295.121C181.185 294.452 179.411 294.277 177.698 294.617C175.986 294.957 174.413 295.798 173.179 297.032C171.944 298.266 171.104 299.839 170.764 301.552C170.424 303.264 170.599 305.039 171.268 306.651C171.937 308.264 173.069 309.642 174.521 310.61C175.973 311.579 177.68 312.096 179.426 312.094C181.763 312.092 184.004 311.162 185.656 309.51C187.309 307.857 188.238 305.616 188.241 303.279Z" fill="#5A9DFF"/>
<path d="M183.896 298.809H174.956V307.75H183.896V298.809Z" fill="#5A9DFF" stroke="#263238" stroke-width="1.33739" stroke-linecap="round" stroke-linejoin="round"/>
<path d="M285.924 201.823C285.924 201.823 274.21 172.06 284.638 168.523C295.495 164.834 295.016 184.488 294.596 194.067C293.713 214.537 291.453 218.343 289.764 213.343L285.924 201.823ZM282.403 225.04C285.621 229.242 286.529 224.889 280.723 205.235C278 195.992 272.084 177.295 263.009 184.312C254.296 191.034 275.034 215.402 275.034 215.402L282.403 225.04ZM276.185 242.098C279.252 244.821 279.311 241.384 272.026 227.191C268.606 220.545 261.371 207.092 255.447 213.747C249.758 220.167 269.143 235.771 269.143 235.771L276.185 242.098ZM269.463 262.383C272.53 265.113 272.589 261.668 265.303 247.484C261.883 240.838 254.649 227.376 248.724 234.04C243.069 240.476 262.396 256.08 262.396 256.08L269.463 262.383ZM288.873 221.091C283.966 223.007 287.865 225.091 308.36 225.032C317.972 225.032 337.602 224.595 333.417 213.915C329.409 203.655 300.217 216.721 300.217 216.721L288.873 221.091ZM283.285 234.737C278.092 235.636 281.504 238.46 301.604 242.476C311.023 244.367 330.341 247.854 328.367 236.594C326.476 225.738 295.268 232.746 295.268 232.746L283.285 234.737ZM277.034 251.4C272.614 252.039 275.437 254.501 292.335 258.366C300.259 260.181 316.519 263.584 315.107 253.98C313.763 244.737 287.21 249.963 287.21 249.963L277.034 251.4ZM272.286 266.836C267.959 267.937 271.026 270.088 288.252 272.138C296.318 273.096 312.847 274.76 310.435 265.357C308.107 256.332 282.26 264.324 282.26 264.324L272.286 266.836ZM297.612 204.344C295.091 209.991 300.326 209.134 318.124 193.605C326.459 186.32 343.181 171.077 329.938 163.489C317.225 156.196 303.553 191.387 303.553 191.387L297.612 204.344ZM272.942 286.944C270.278 288.499 272.891 289.104 285.109 286.667C290.84 285.532 302.494 283.012 298.553 278.037C294.739 273.247 279.109 283.331 279.109 283.331L272.942 286.944Z" fill="#5A9DFF"/>
<path opacity="0.3" d="M285.924 201.823C285.924 201.823 274.21 172.06 284.638 168.523C295.495 164.834 295.016 184.488 294.596 194.067C293.713 214.537 291.453 218.343 289.764 213.343L285.924 201.823ZM282.403 225.04C285.621 229.242 286.529 224.889 280.723 205.235C278 195.992 272.084 177.295 263.009 184.312C254.296 191.034 275.034 215.402 275.034 215.402L282.403 225.04ZM276.185 242.098C279.252 244.821 279.311 241.384 272.026 227.191C268.606 220.545 261.371 207.092 255.447 213.747C249.758 220.167 269.143 235.771 269.143 235.771L276.185 242.098ZM269.463 262.383C272.53 265.113 272.589 261.668 265.303 247.484C261.883 240.838 254.649 227.376 248.724 234.04C243.069 240.476 262.396 256.08 262.396 256.08L269.463 262.383ZM288.873 221.091C283.966 223.007 287.865 225.091 308.36 225.032C317.972 225.032 337.602 224.595 333.417 213.915C329.409 203.655 300.217 216.721 300.217 216.721L288.873 221.091ZM283.285 234.737C278.092 235.636 281.504 238.46 301.604 242.476C311.023 244.367 330.341 247.854 328.367 236.594C326.476 225.738 295.268 232.746 295.268 232.746L283.285 234.737ZM277.034 251.4C272.614 252.039 275.437 254.501 292.335 258.366C300.259 260.181 316.519 263.584 315.107 253.98C313.763 244.737 287.21 249.963 287.21 249.963L277.034 251.4ZM272.286 266.836C267.959 267.937 271.026 270.088 288.252 272.138C296.318 273.096 312.847 274.76 310.435 265.357C308.107 256.332 282.26 264.324 282.26 264.324L272.286 266.836ZM297.612 204.344C295.091 209.991 300.326 209.134 318.124 193.605C326.459 186.32 343.181 171.077 329.938 163.489C317.225 156.196 303.553 191.387 303.553 191.387L297.612 204.344ZM272.942 286.944C270.278 288.499 272.891 289.104 285.109 286.667C290.84 285.532 302.494 283.012 298.553 278.037C294.739 273.247 279.109 283.331 279.109 283.331L272.942 286.944Z" fill="white"/>
<path d="M291.092 215.679L289.05 181.707L291.092 215.679ZM284.63 226.889L271.723 197.672L284.63 226.889ZM317.939 218.394L287.008 222.83L317.939 218.394ZM277.941 242.636L261.194 221.15L277.941 242.636ZM280.882 236.048L303.956 237.208L280.882 236.048ZM275.42 252.526L293.066 254.274L275.42 252.526ZM271.16 262.996L262.396 249.812L271.16 262.996ZM270.152 267.651L290.898 267.844L270.152 267.651ZM265.95 306.573C266.089 306.562 266.219 306.497 266.31 306.392C266.401 306.286 266.447 306.149 266.438 306.01C265.118 286.196 272.782 253.744 285.075 227.107C292.932 210.083 323.728 176.623 324.056 176.287C324.155 176.188 324.211 176.053 324.211 175.913C324.211 175.773 324.155 175.638 324.056 175.539C324.008 175.49 323.95 175.452 323.887 175.425C323.823 175.399 323.755 175.385 323.686 175.385C323.618 175.385 323.55 175.399 323.486 175.425C323.423 175.452 323.365 175.49 323.317 175.539C323.006 175.875 292.083 209.461 284.159 226.637C271.639 253.921 264.077 285.785 265.421 306.077C265.431 306.211 265.492 306.336 265.59 306.428C265.687 306.52 265.816 306.572 265.95 306.573ZM291.083 216.2C291.222 216.192 291.352 216.129 291.445 216.025C291.538 215.921 291.586 215.785 291.579 215.646L289.571 181.656C289.568 181.587 289.551 181.519 289.521 181.457C289.491 181.394 289.449 181.338 289.398 181.292C289.346 181.246 289.286 181.21 289.22 181.188C289.155 181.165 289.085 181.156 289.016 181.161C288.877 181.169 288.747 181.232 288.655 181.336C288.562 181.44 288.514 181.576 288.52 181.715L290.562 215.688C290.569 215.822 290.627 215.948 290.724 216.04C290.821 216.132 290.949 216.184 291.083 216.184V216.2ZM284.815 227.368C284.941 227.311 285.039 227.207 285.09 227.078C285.14 226.949 285.138 226.806 285.084 226.679L272.168 197.462C272.113 197.335 272.009 197.235 271.88 197.185C271.75 197.135 271.606 197.137 271.479 197.193C271.352 197.249 271.253 197.353 271.202 197.482C271.152 197.611 271.155 197.755 271.211 197.882L284.117 227.099C284.158 227.193 284.225 227.273 284.31 227.329C284.395 227.386 284.494 227.417 284.596 227.418C284.683 227.423 284.77 227.405 284.848 227.368H284.815ZM287.05 223.335L317.964 218.915C318.039 218.913 318.112 218.896 318.18 218.864C318.247 218.832 318.307 218.786 318.356 218.729C318.404 218.672 318.44 218.606 318.461 218.534C318.482 218.463 318.488 218.387 318.478 218.313C318.467 218.239 318.442 218.168 318.402 218.105C318.363 218.042 318.31 217.987 318.248 217.946C318.186 217.904 318.116 217.876 318.043 217.864C317.969 217.851 317.894 217.854 317.821 217.873L286.907 222.293C286.769 222.301 286.64 222.365 286.549 222.469C286.457 222.573 286.411 222.709 286.42 222.847C286.429 222.985 286.492 223.114 286.596 223.206C286.7 223.297 286.836 223.343 286.974 223.335H287.05ZM278.235 243.056C278.345 242.97 278.416 242.844 278.434 242.705C278.451 242.567 278.413 242.427 278.328 242.317L261.572 220.788C261.487 220.677 261.36 220.604 261.221 220.586C261.081 220.568 260.94 220.606 260.829 220.692C260.717 220.778 260.645 220.904 260.626 221.044C260.608 221.183 260.646 221.324 260.732 221.435L277.521 242.997C277.57 243.06 277.632 243.111 277.704 243.146C277.775 243.181 277.853 243.199 277.933 243.199C278.058 243.193 278.177 243.142 278.269 243.056H278.235ZM304.419 237.233C304.423 237.094 304.373 236.959 304.279 236.856C304.184 236.754 304.053 236.693 303.914 236.687L280.882 235.519C280.753 235.528 280.631 235.584 280.54 235.676C280.45 235.769 280.396 235.892 280.39 236.021C280.384 236.151 280.425 236.278 280.507 236.379C280.588 236.48 280.704 236.548 280.832 236.569L303.906 237.737C304.045 237.742 304.18 237.691 304.283 237.597C304.385 237.503 304.446 237.372 304.452 237.233H304.419ZM293.554 254.324C293.562 254.255 293.556 254.185 293.537 254.118C293.517 254.051 293.485 253.989 293.441 253.935C293.397 253.881 293.343 253.836 293.281 253.804C293.22 253.771 293.153 253.751 293.083 253.744L275.437 252.005C275.369 251.998 275.3 252.005 275.234 252.025C275.168 252.045 275.107 252.077 275.053 252.121C275 252.165 274.956 252.219 274.924 252.28C274.892 252.34 274.872 252.407 274.866 252.476C274.854 252.613 274.897 252.75 274.985 252.857C275.073 252.964 275.199 253.032 275.336 253.047L292.982 254.795H293.033C293.168 254.804 293.302 254.76 293.406 254.672C293.509 254.584 293.575 254.46 293.587 254.324H293.554ZM271.412 263.433C271.529 263.356 271.61 263.236 271.639 263.099C271.667 262.962 271.64 262.819 271.563 262.702L262.841 249.518C262.761 249.404 262.641 249.326 262.505 249.299C262.368 249.273 262.227 249.3 262.11 249.375C261.994 249.452 261.912 249.572 261.884 249.709C261.855 249.846 261.883 249.989 261.959 250.106L270.681 263.29C270.731 263.362 270.798 263.421 270.875 263.462C270.953 263.503 271.039 263.525 271.127 263.525C271.24 263.532 271.353 263.499 271.446 263.433H271.412ZM291.428 267.844C291.426 267.706 291.37 267.574 291.273 267.475C291.176 267.377 291.045 267.319 290.907 267.315L270.16 267.122C270.022 267.122 269.89 267.177 269.792 267.274C269.694 267.372 269.639 267.505 269.639 267.643C269.637 267.712 269.649 267.781 269.674 267.846C269.699 267.911 269.737 267.97 269.786 268.019C269.835 268.069 269.893 268.108 269.957 268.134C270.022 268.16 270.091 268.173 270.16 268.172L290.907 268.365C290.978 268.369 291.049 268.358 291.115 268.333C291.182 268.309 291.243 268.271 291.295 268.222C291.346 268.174 291.388 268.115 291.416 268.05C291.445 267.985 291.46 267.915 291.461 267.844H291.428ZM263.589 298.868C263.631 298.775 267.169 289.028 277.807 286.7C277.944 286.67 278.063 286.587 278.139 286.469C278.215 286.351 278.24 286.207 278.21 286.07C278.176 285.936 278.092 285.82 277.974 285.746C277.857 285.673 277.716 285.647 277.58 285.675C266.362 288.129 262.64 298.422 262.598 298.523C262.554 298.656 262.564 298.8 262.625 298.926C262.687 299.051 262.794 299.148 262.925 299.196H263.093C263.205 299.205 263.317 299.178 263.412 299.119C263.508 299.06 263.582 298.972 263.623 298.868H263.589ZM265.95 306.573C266.089 306.562 266.219 306.497 266.31 306.392C266.401 306.286 266.447 306.149 266.438 306.01C265.118 286.196 272.782 253.744 285.075 227.107C292.932 210.083 323.728 176.623 324.056 176.287C324.155 176.188 324.211 176.053 324.211 175.913C324.211 175.773 324.155 175.638 324.056 175.539C324.008 175.49 323.95 175.452 323.887 175.425C323.823 175.399 323.755 175.385 323.686 175.385C323.618 175.385 323.55 175.399 323.486 175.425C323.423 175.452 323.365 175.49 323.317 175.539C323.006 175.875 292.083 209.461 284.159 226.637C271.639 253.921 264.077 285.785 265.421 306.077C265.431 306.211 265.492 306.336 265.59 306.428C265.687 306.52 265.816 306.572 265.95 306.573ZM291.083 216.2C291.222 216.192 291.352 216.129 291.445 216.025C291.538 215.921 291.586 215.785 291.579 215.646L289.571 181.656C289.568 181.587 289.551 181.519 289.521 181.457C289.491 181.394 289.449 181.338 289.398 181.292C289.346 181.246 289.286 181.21 289.22 181.188C289.155 181.165 289.085 181.156 289.016 181.161C288.877 181.169 288.747 181.232 288.655 181.336C288.562 181.44 288.514 181.576 288.52 181.715L290.562 215.688C290.569 215.822 290.627 215.948 290.724 216.04C290.821 216.132 290.949 216.184 291.083 216.184V216.2ZM284.815 227.368C284.941 227.311 285.039 227.207 285.09 227.078C285.14 226.949 285.138 226.806 285.084 226.679L272.168 197.462C272.113 197.335 272.009 197.235 271.88 197.185C271.75 197.135 271.606 197.137 271.479 197.193C271.352 197.249 271.253 197.353 271.202 197.482C271.152 197.611 271.155 197.755 271.211 197.882L284.117 227.099C284.158 227.193 284.225 227.273 284.31 227.329C284.395 227.386 284.494 227.417 284.596 227.418C284.683 227.423 284.77 227.405 284.848 227.368H284.815ZM287.05 223.335L317.964 218.915C318.039 218.913 318.112 218.896 318.18 218.864C318.247 218.832 318.307 218.786 318.356 218.729C318.404 218.672 318.44 218.606 318.461 218.534C318.482 218.463 318.488 218.387 318.478 218.313C318.467 218.239 318.442 218.168 318.402 218.105C318.363 218.042 318.31 217.987 318.248 217.946C318.186 217.904 318.116 217.876 318.043 217.864C317.969 217.851 317.894 217.854 317.821 217.873L286.907 222.293C286.769 222.301 286.64 222.365 286.549 222.469C286.457 222.573 286.411 222.709 286.42 222.847C286.429 222.985 286.492 223.114 286.596 223.206C286.7 223.297 286.836 223.343 286.974 223.335H287.05ZM278.235 243.056C278.345 242.97 278.416 242.844 278.434 242.705C278.451 242.567 278.413 242.427 278.328 242.317L261.572 220.788C261.53 220.733 261.477 220.687 261.417 220.652C261.356 220.618 261.29 220.595 261.221 220.586C261.152 220.577 261.081 220.582 261.014 220.6C260.947 220.618 260.884 220.649 260.829 220.692C260.774 220.734 260.727 220.787 260.693 220.848C260.658 220.908 260.635 220.975 260.626 221.044C260.618 221.113 260.622 221.183 260.64 221.25C260.659 221.317 260.69 221.38 260.732 221.435L277.521 242.997C277.57 243.06 277.632 243.111 277.704 243.146C277.775 243.181 277.853 243.199 277.933 243.199C278.058 243.193 278.177 243.142 278.269 243.056H278.235ZM304.419 237.233C304.423 237.094 304.373 236.959 304.279 236.856C304.184 236.754 304.053 236.693 303.914 236.687L280.882 235.519C280.753 235.528 280.631 235.584 280.54 235.676C280.45 235.769 280.396 235.892 280.39 236.021C280.384 236.151 280.425 236.278 280.507 236.379C280.588 236.48 280.704 236.548 280.832 236.569L303.906 237.737C304.045 237.742 304.18 237.691 304.283 237.597C304.385 237.503 304.446 237.372 304.452 237.233H304.419ZM293.554 254.324C293.562 254.255 293.556 254.185 293.537 254.118C293.517 254.051 293.485 253.989 293.441 253.935C293.397 253.881 293.343 253.836 293.281 253.804C293.22 253.771 293.153 253.751 293.083 253.744L275.437 252.005C275.369 251.998 275.3 252.005 275.234 252.025C275.168 252.045 275.107 252.077 275.053 252.121C275 252.165 274.956 252.219 274.924 252.28C274.892 252.34 274.872 252.407 274.866 252.476C274.854 252.613 274.897 252.75 274.985 252.857C275.073 252.964 275.199 253.032 275.336 253.047L292.982 254.795H293.033C293.168 254.804 293.302 254.76 293.406 254.672C293.509 254.584 293.575 254.46 293.587 254.324H293.554ZM271.412 263.433C271.529 263.356 271.61 263.236 271.639 263.099C271.667 262.962 271.64 262.819 271.563 262.702L262.841 249.518C262.761 249.404 262.641 249.326 262.505 249.299C262.368 249.273 262.227 249.3 262.11 249.375C261.994 249.452 261.912 249.572 261.884 249.709C261.855 249.846 261.883 249.989 261.959 250.106L270.681 263.29C270.731 263.362 270.798 263.421 270.875 263.462C270.953 263.503 271.039 263.525 271.127 263.525C271.24 263.532 271.353 263.499 271.446 263.433H271.412ZM291.428 267.844C291.426 267.706 291.37 267.574 291.273 267.475C291.176 267.377 291.045 267.319 290.907 267.315L270.16 267.122C270.022 267.122 269.89 267.177 269.792 267.274C269.694 267.372 269.639 267.505 269.639 267.643C269.637 267.712 269.649 267.781 269.674 267.846C269.699 267.911 269.737 267.97 269.786 268.019C269.835 268.069 269.893 268.108 269.957 268.134C270.022 268.16 270.091 268.173 270.16 268.172L290.907 268.365C290.978 268.369 291.049 268.358 291.115 268.333C291.182 268.309 291.243 268.271 291.295 268.222C291.346 268.174 291.388 268.115 291.416 268.05C291.445 267.985 291.46 267.915 291.461 267.844H291.428ZM263.589 298.868C263.631 298.775 267.169 289.028 277.807 286.7C277.944 286.67 278.063 286.587 278.139 286.469C278.215 286.351 278.24 286.207 278.21 286.07C278.176 285.936 278.092 285.82 277.974 285.746C277.857 285.673 277.716 285.647 277.58 285.675C266.362 288.129 262.64 298.422 262.598 298.523C262.554 298.656 262.564 298.8 262.625 298.926C262.687 299.051 262.794 299.148 262.925 299.196H263.093C263.205 299.205 263.317 299.178 263.412 299.119C263.508 299.06 263.582 298.972 263.623 298.868H263.589Z" fill="#5A9DFF"/>
<path opacity="0.2" d="M291.092 215.679L289.05 181.707L291.092 215.679ZM284.63 226.889L271.723 197.672L284.63 226.889ZM317.939 218.394L287.008 222.83L317.939 218.394ZM277.941 242.636L261.194 221.15L277.941 242.636ZM280.882 236.048L303.956 237.208L280.882 236.048ZM275.42 252.526L293.066 254.274L275.42 252.526ZM271.16 262.996L262.396 249.812L271.16 262.996ZM270.152 267.651L290.898 267.844L270.152 267.651ZM265.95 306.573C266.089 306.562 266.219 306.497 266.31 306.392C266.401 306.286 266.447 306.149 266.438 306.01C265.118 286.196 272.782 253.744 285.075 227.107C292.932 210.083 323.728 176.623 324.056 176.287C324.155 176.188 324.211 176.053 324.211 175.913C324.211 175.773 324.155 175.638 324.056 175.539C324.008 175.49 323.95 175.452 323.887 175.425C323.823 175.399 323.755 175.385 323.686 175.385C323.618 175.385 323.55 175.399 323.486 175.425C323.423 175.452 323.365 175.49 323.317 175.539C323.006 175.875 292.083 209.461 284.159 226.637C271.639 253.921 264.077 285.785 265.421 306.077C265.431 306.211 265.492 306.336 265.59 306.428C265.687 306.52 265.816 306.572 265.95 306.573ZM291.083 216.2C291.222 216.192 291.352 216.129 291.445 216.025C291.538 215.921 291.586 215.785 291.579 215.646L289.571 181.656C289.568 181.587 289.551 181.519 289.521 181.457C289.491 181.394 289.449 181.338 289.398 181.292C289.346 181.246 289.286 181.21 289.22 181.188C289.155 181.165 289.085 181.156 289.016 181.161C288.877 181.169 288.747 181.232 288.655 181.336C288.562 181.44 288.514 181.576 288.52 181.715L290.562 215.688C290.569 215.822 290.627 215.948 290.724 216.04C290.821 216.132 290.949 216.184 291.083 216.184V216.2ZM284.815 227.368C284.941 227.311 285.039 227.207 285.09 227.078C285.14 226.949 285.138 226.806 285.084 226.679L272.168 197.462C272.113 197.335 272.009 197.235 271.88 197.185C271.75 197.135 271.606 197.137 271.479 197.193C271.352 197.249 271.253 197.353 271.202 197.482C271.152 197.611 271.155 197.755 271.211 197.882L284.117 227.099C284.158 227.193 284.225 227.273 284.31 227.329C284.395 227.386 284.494 227.417 284.596 227.418C284.683 227.423 284.77 227.405 284.848 227.368H284.815ZM287.05 223.335L317.964 218.915C318.039 218.913 318.112 218.896 318.18 218.864C318.247 218.832 318.307 218.786 318.356 218.729C318.404 218.672 318.44 218.606 318.461 218.534C318.482 218.463 318.488 218.387 318.478 218.313C318.467 218.239 318.442 218.168 318.402 218.105C318.363 218.042 318.31 217.987 318.248 217.946C318.186 217.904 318.116 217.876 318.043 217.864C317.969 217.851 317.894 217.854 317.821 217.873L286.907 222.293C286.769 222.301 286.64 222.365 286.549 222.469C286.457 222.573 286.411 222.709 286.42 222.847C286.429 222.985 286.492 223.114 286.596 223.206C286.7 223.297 286.836 223.343 286.974 223.335H287.05ZM278.235 243.056C278.345 242.97 278.416 242.844 278.434 242.705C278.451 242.567 278.413 242.427 278.328 242.317L261.572 220.788C261.487 220.677 261.36 220.604 261.221 220.586C261.081 220.568 260.94 220.606 260.829 220.692C260.717 220.778 260.645 220.904 260.626 221.044C260.608 221.183 260.646 221.324 260.732 221.435L277.521 242.997C277.57 243.06 277.632 243.111 277.704 243.146C277.775 243.181 277.853 243.199 277.933 243.199C278.058 243.193 278.177 243.142 278.269 243.056H278.235ZM304.419 237.233C304.423 237.094 304.373 236.959 304.279 236.856C304.184 236.754 304.053 236.693 303.914 236.687L280.882 235.519C280.753 235.528 280.631 235.584 280.54 235.676C280.45 235.769 280.396 235.892 280.39 236.021C280.384 236.151 280.425 236.278 280.507 236.379C280.588 236.48 280.704 236.548 280.832 236.569L303.906 237.737C304.045 237.742 304.18 237.691 304.283 237.597C304.385 237.503 304.446 237.372 304.452 237.233H304.419ZM293.554 254.324C293.562 254.255 293.556 254.185 293.537 254.118C293.517 254.051 293.485 253.989 293.441 253.935C293.397 253.881 293.343 253.836 293.281 253.804C293.22 253.771 293.153 253.751 293.083 253.744L275.437 252.005C275.369 251.998 275.3 252.005 275.234 252.025C275.168 252.045 275.107 252.077 275.053 252.121C275 252.165 274.956 252.219 274.924 252.28C274.892 252.34 274.872 252.407 274.866 252.476C274.854 252.613 274.897 252.75 274.985 252.857C275.073 252.964 275.199 253.032 275.336 253.047L292.982 254.795H293.033C293.168 254.804 293.302 254.76 293.406 254.672C293.509 254.584 293.575 254.46 293.587 254.324H293.554ZM271.412 263.433C271.529 263.356 271.61 263.236 271.639 263.099C271.667 262.962 271.64 262.819 271.563 262.702L262.841 249.518C262.761 249.404 262.641 249.326 262.505 249.299C262.368 249.273 262.227 249.3 262.11 249.375C261.994 249.452 261.912 249.572 261.884 249.709C261.855 249.846 261.883 249.989 261.959 250.106L270.681 263.29C270.731 263.362 270.798 263.421 270.875 263.462C270.953 263.503 271.039 263.525 271.127 263.525C271.24 263.532 271.353 263.499 271.446 263.433H271.412ZM291.428 267.844C291.426 267.706 291.37 267.574 291.273 267.475C291.176 267.377 291.045 267.319 290.907 267.315L270.16 267.122C270.022 267.122 269.89 267.177 269.792 267.274C269.694 267.372 269.639 267.505 269.639 267.643C269.637 267.712 269.649 267.781 269.674 267.846C269.699 267.911 269.737 267.97 269.786 268.019C269.835 268.069 269.893 268.108 269.957 268.134C270.022 268.16 270.091 268.173 270.16 268.172L290.907 268.365C290.978 268.369 291.049 268.358 291.115 268.333C291.182 268.309 291.243 268.271 291.295 268.222C291.346 268.174 291.388 268.115 291.416 268.05C291.445 267.985 291.46 267.915 291.461 267.844H291.428ZM263.589 298.868C263.631 298.775 267.169 289.028 277.807 286.7C277.944 286.67 278.063 286.587 278.139 286.469C278.215 286.351 278.24 286.207 278.21 286.07C278.176 285.936 278.092 285.82 277.974 285.746C277.857 285.673 277.716 285.647 277.58 285.675C266.362 288.129 262.64 298.422 262.598 298.523C262.554 298.656 262.564 298.8 262.625 298.926C262.687 299.051 262.794 299.148 262.925 299.196H263.093C263.205 299.205 263.317 299.178 263.412 299.119C263.508 299.06 263.582 298.972 263.623 298.868H263.589ZM265.95 306.573C266.089 306.562 266.219 306.497 266.31 306.392C266.401 306.286 266.447 306.149 266.438 306.01C265.118 286.196 272.782 253.744 285.075 227.107C292.932 210.083 323.728 176.623 324.056 176.287C324.155 176.188 324.211 176.053 324.211 175.913C324.211 175.773 324.155 175.638 324.056 175.539C324.008 175.49 323.95 175.452 323.887 175.425C323.823 175.399 323.755 175.385 323.686 175.385C323.618 175.385 323.55 175.399 323.486 175.425C323.423 175.452 323.365 175.49 323.317 175.539C323.006 175.875 292.083 209.461 284.159 226.637C271.639 253.921 264.077 285.785 265.421 306.077C265.431 306.211 265.492 306.336 265.59 306.428C265.687 306.52 265.816 306.572 265.95 306.573ZM291.083 216.2C291.222 216.192 291.352 216.129 291.445 216.025C291.538 215.921 291.586 215.785 291.579 215.646L289.571 181.656C289.568 181.587 289.551 181.519 289.521 181.457C289.491 181.394 289.449 181.338 289.398 181.292C289.346 181.246 289.286 181.21 289.22 181.188C289.155 181.165 289.085 181.156 289.016 181.161C288.877 181.169 288.747 181.232 288.655 181.336C288.562 181.44 288.514 181.576 288.52 181.715L290.562 215.688C290.569 215.822 290.627 215.948 290.724 216.04C290.821 216.132 290.949 216.184 291.083 216.184V216.2ZM284.815 227.368C284.941 227.311 285.039 227.207 285.09 227.078C285.14 226.949 285.138 226.806 285.084 226.679L272.168 197.462C272.113 197.335 272.009 197.235 271.88 197.185C271.75 197.135 271.606 197.137 271.479 197.193C271.352 197.249 271.253 197.353 271.202 197.482C271.152 197.611 271.155 197.755 271.211 197.882L284.117 227.099C284.158 227.193 284.225 227.273 284.31 227.329C284.395 227.386 284.494 227.417 284.596 227.418C284.683 227.423 284.77 227.405 284.848 227.368H284.815ZM287.05 223.335L317.964 218.915C318.039 218.913 318.112 218.896 318.18 218.864C318.247 218.832 318.307 218.786 318.356 218.729C318.404 218.672 318.44 218.606 318.461 218.534C318.482 218.463 318.488 218.387 318.478 218.313C318.467 218.239 318.442 218.168 318.402 218.105C318.363 218.042 318.31 217.987 318.248 217.946C318.186 217.904 318.116 217.876 318.043 217.864C317.969 217.851 317.894 217.854 317.821 217.873L286.907 222.293C286.769 222.301 286.64 222.365 286.549 222.469C286.457 222.573 286.411 222.709 286.42 222.847C286.429 222.985 286.492 223.114 286.596 223.206C286.7 223.297 286.836 223.343 286.974 223.335H287.05ZM278.235 243.056C278.345 242.97 278.416 242.844 278.434 242.705C278.451 242.567 278.413 242.427 278.328 242.317L261.572 220.788C261.53 220.733 261.477 220.687 261.417 220.652C261.356 220.618 261.29 220.595 261.221 220.586C261.152 220.577 261.081 220.582 261.014 220.6C260.947 220.618 260.884 220.649 260.829 220.692C260.774 220.734 260.727 220.787 260.693 220.848C260.658 220.908 260.635 220.975 260.626 221.044C260.618 221.113 260.622 221.183 260.64 221.25C260.659 221.317 260.69 221.38 260.732 221.435L277.521 242.997C277.57 243.06 277.632 243.111 277.704 243.146C277.775 243.181 277.853 243.199 277.933 243.199C278.058 243.193 278.177 243.142 278.269 243.056H278.235ZM304.419 237.233C304.423 237.094 304.373 236.959 304.279 236.856C304.184 236.754 304.053 236.693 303.914 236.687L280.882 235.519C280.753 235.528 280.631 235.584 280.54 235.676C280.45 235.769 280.396 235.892 280.39 236.021C280.384 236.151 280.425 236.278 280.507 236.379C280.588 236.48 280.704 236.548 280.832 236.569L303.906 237.737C304.045 237.742 304.18 237.691 304.283 237.597C304.385 237.503 304.446 237.372 304.452 237.233H304.419ZM293.554 254.324C293.562 254.255 293.556 254.185 293.537 254.118C293.517 254.051 293.485 253.989 293.441 253.935C293.397 253.881 293.343 253.836 293.281 253.804C293.22 253.771 293.153 253.751 293.083 253.744L275.437 252.005C275.369 251.998 275.3 252.005 275.234 252.025C275.168 252.045 275.107 252.077 275.053 252.121C275 252.165 274.956 252.219 274.924 252.28C274.892 252.34 274.872 252.407 274.866 252.476C274.854 252.613 274.897 252.75 274.985 252.857C275.073 252.964 275.199 253.032 275.336 253.047L292.982 254.795H293.033C293.168 254.804 293.302 254.76 293.406 254.672C293.509 254.584 293.575 254.46 293.587 254.324H293.554ZM271.412 263.433C271.529 263.356 271.61 263.236 271.639 263.099C271.667 262.962 271.64 262.819 271.563 262.702L262.841 249.518C262.761 249.404 262.641 249.326 262.505 249.299C262.368 249.273 262.227 249.3 262.11 249.375C261.994 249.452 261.912 249.572 261.884 249.709C261.855 249.846 261.883 249.989 261.959 250.106L270.681 263.29C270.731 263.362 270.798 263.421 270.875 263.462C270.953 263.503 271.039 263.525 271.127 263.525C271.24 263.532 271.353 263.499 271.446 263.433H271.412ZM291.428 267.844C291.426 267.706 291.37 267.574 291.273 267.475C291.176 267.377 291.045 267.319 290.907 267.315L270.16 267.122C270.022 267.122 269.89 267.177 269.792 267.274C269.694 267.372 269.639 267.505 269.639 267.643C269.637 267.712 269.649 267.781 269.674 267.846C269.699 267.911 269.737 267.97 269.786 268.019C269.835 268.069 269.893 268.108 269.957 268.134C270.022 268.16 270.091 268.173 270.16 268.172L290.907 268.365C290.978 268.369 291.049 268.358 291.115 268.333C291.182 268.309 291.243 268.271 291.295 268.222C291.346 268.174 291.388 268.115 291.416 268.05C291.445 267.985 291.46 267.915 291.461 267.844H291.428ZM263.589 298.868C263.631 298.775 267.169 289.028 277.807 286.7C277.944 286.67 278.063 286.587 278.139 286.469C278.215 286.351 278.24 286.207 278.21 286.07C278.176 285.936 278.092 285.82 277.974 285.746C277.857 285.673 277.716 285.647 277.58 285.675C266.362 288.129 262.64 298.422 262.598 298.523C262.554 298.656 262.564 298.8 262.625 298.926C262.687 299.051 262.794 299.148 262.925 299.196H263.093C263.205 299.205 263.317 299.178 263.412 299.119C263.508 299.06 263.582 298.972 263.623 298.868H263.589Z" fill="black"/>
<path d="M279.672 291.759H255.884V296.683H257.959L262.253 323.547H273.303L277.597 296.683H279.672V291.759Z" fill="#5A9DFF"/>
<path opacity="0.3" d="M279.672 291.759H255.884V296.683H257.959L262.253 323.547H273.303L277.597 296.683H279.672V291.759Z" fill="white"/>
<path d="M65.5002 142.86L37.8295 133.827L35.3675 127.323L29.746 127.147L19.5449 125.214L20.7717 127.323L33.6113 136.642L36.7792 138.222L65.7186 153.339L65.5002 142.86Z" fill="white" stroke="#263238" stroke-width="1.00396" stroke-miterlimit="10"/>
<path d="M35.3675 127.323L32.729 125.744L27.4604 127.676L28.3343 128.727L35.3675 127.323Z" fill="white" stroke="#263238" stroke-width="1.00396" stroke-linejoin="round"/>
<path d="M65.5002 142.86L37.8295 133.827L35.3675 127.323L29.746 127.147L19.5449 125.214L20.7717 127.323L33.6113 136.642L36.7792 138.222L65.7186 153.339L65.5002 142.86Z" fill="white"/>
<mask id="mask0_1_232" style="mask-type:luminance" maskUnits="userSpaceOnUse" x="19" y="125" width="47" height="29">
<path d="M65.5002 142.86L37.8295 133.827L35.3675 127.323L29.746 127.147L19.5449 125.214L20.7717 127.323L33.6113 136.642L36.7792 138.222L65.7186 153.339L65.5002 142.86Z" fill="white"/>
</mask>
<g mask="url(#mask0_1_232)">
<path opacity="0.5" d="M65.5002 142.86L37.8295 133.827L35.3675 127.323L29.746 127.147L19.5449 125.214L20.7717 127.323L33.6113 136.642L36.7792 138.222L65.7186 153.339L65.5002 142.86Z" fill="#5A9DFF" stroke="#263238" stroke-width="1.00396" stroke-miterlimit="10"/>
</g>
<path d="M65.5002 142.86L37.8295 133.827L35.3675 127.323L29.746 127.147L19.5449 125.214L20.7717 127.323L33.6113 136.642L36.7792 138.222L65.7186 153.339L65.5002 142.86Z" stroke="#263238" stroke-width="1.00396" stroke-miterlimit="10"/>
<path d="M35.3675 127.323L32.729 125.744L27.4604 127.676L28.3343 128.727L35.3675 127.323Z" fill="white"/>
<mask id="mask1_1_232" style="mask-type:luminance" maskUnits="userSpaceOnUse" x="27" y="125" width="9" height="4">
<path d="M35.3675 127.323L32.729 125.744L27.4604 127.676L28.3343 128.727L35.3675 127.323Z" fill="white"/>
</mask>
<g mask="url(#mask1_1_232)">
<path opacity="0.5" d="M35.3675 127.323L32.729 125.744L27.4604 127.676L28.3343 128.727L35.3675 127.323Z" fill="#5A9DFF" stroke="#263238" stroke-width="1.00396" stroke-linejoin="round"/>
</g>
<path d="M35.3675 127.323L32.729 125.744L27.4604 127.676L28.3343 128.727L35.3675 127.323Z" stroke="#263238" stroke-width="1.00396" stroke-linejoin="round"/>
<path d="M71.3737 84.2335C71.3737 84.2335 70.9452 88.0148 72.0123 90.4432C73.0795 92.8717 79.0035 101.098 79.0035 101.098L67.9454 109.963C67.9454 109.963 63.3574 100.72 62.4835 99.2242C61.6096 97.7285 60.5593 91.2919 63.4078 86.6788C66.2564 82.0656 70.357 80.822 71.3737 84.2335Z" fill="white"/>
<mask id="mask2_1_232" style="mask-type:luminance" maskUnits="userSpaceOnUse" x="61" y="82" width="19" height="28">
<path d="M71.3737 84.2335C71.3737 84.2335 70.9452 88.0148 72.0123 90.4432C73.0795 92.8717 79.0035 101.098 79.0035 101.098L67.9454 109.963C67.9454 109.963 63.3574 100.72 62.4835 99.2242C61.6096 97.7285 60.5593 91.2919 63.4078 86.6788C66.2564 82.0656 70.357 80.822 71.3737 84.2335Z" fill="white"/>
</mask>
<g mask="url(#mask2_1_232)">
<g style="mix-blend-mode:multiply" opacity="0.5">
<path d="M65.6934 96.3841L70.4914 106.333L67.937 109.971L63.1137 101.359L65.6934 96.3841Z" fill="#5A9DFF"/>
</g>
</g>
<path d="M71.3737 84.2335C71.3737 84.2335 70.9452 88.0148 72.0123 90.4432C73.0795 92.8717 79.0035 101.098 79.0035 101.098L67.9454 109.963C67.9454 109.963 63.3574 100.72 62.4835 99.2242C61.6096 97.7285 60.5593 91.2919 63.4078 86.6788C66.2564 82.0656 70.357 80.822 71.3737 84.2335Z" stroke="#263238" stroke-width="1.00396" stroke-miterlimit="10"/>
<path d="M74.8021 77.3096C74.1215 73.1082 69.3066 64.5624 61.6684 64.8902C56.7107 65.1086 54.3916 66.1086 52.2404 67.327C50.487 68.3601 48.8526 69.583 47.3668 70.9738C43.6359 75.4526 42.3251 76.6794 43.0477 80.1077C42.9884 81.4752 43.2027 82.8407 43.6779 84.1243C44.8207 87.1745 45.6022 89.166 46.5937 90.6197C46.2912 92.0398 45.5013 95.7875 45.4593 96.6446C45.4173 97.5017 47.9802 96.905 49.2742 96.5773C51.6774 101.955 56.0805 105.686 57.4502 106.115C59.8366 106.862 63.6095 102.938 65.6094 99.8965C67.6093 96.8546 66.0967 93.4347 66.1051 92.0734C66.1135 90.7121 70.6007 87.7207 72.2644 86.7712C73.9282 85.8217 75.4743 81.5026 74.8021 77.3096Z" fill="white"/>
<mask id="mask3_1_232" style="mask-type:luminance" maskUnits="userSpaceOnUse" x="42" y="64" width="33" height="43">
<path d="M74.8021 77.3096C74.1215 73.1082 69.3066 64.5624 61.6684 64.8902C56.7107 65.1086 54.3916 66.1086 52.2404 67.327C50.487 68.3601 48.8526 69.583 47.3668 70.9738C43.6359 75.4526 42.3251 76.6794 43.0477 80.1077C42.9884 81.4752 43.2027 82.8407 43.6779 84.1243C44.8207 87.1745 45.6022 89.166 46.5937 90.6197C46.2912 92.0398 45.5013 95.7875 45.4593 96.6446C45.4173 97.5017 47.9802 96.905 49.2742 96.5773C51.6774 101.955 56.0805 105.686 57.4502 106.115C59.8366 106.862 63.6095 102.938 65.6094 99.8965C67.6093 96.8546 66.0967 93.4347 66.1051 92.0734C66.1135 90.7121 70.6007 87.7207 72.2644 86.7712C73.9282 85.8217 75.4743 81.5026 74.8021 77.3096Z" fill="white"/>
</mask>
<g mask="url(#mask3_1_232)">
<g style="mix-blend-mode:multiply" opacity="0.5">
<path d="M43.0813 80.1077C43.022 81.4752 43.2363 82.8407 43.7115 84.1243C44.8543 87.1745 45.6358 89.166 46.6273 90.6197C46.3248 92.0398 45.5349 95.7875 45.4929 96.6446C45.4509 97.5017 48.0138 96.905 49.3078 96.5773C51.711 101.955 56.1141 105.686 57.4838 106.115C59.8702 106.862 63.6431 102.938 65.643 99.8965C66.1426 99.137 66.467 98.2759 66.5925 97.3756C66.4833 96.9807 66.4076 96.737 66.4076 96.737C66.4076 96.737 65.2817 101.064 63.0465 100.501C60.8113 99.9385 57.3914 95.4598 55.4839 93.9136C53.5765 92.3675 54.3579 90.334 53.9798 88.0316C53.6017 85.7292 47.955 83.7042 47.5768 82.3849C47.1987 81.0657 48.518 75.6038 48.518 75.6038C48.518 75.6038 50.6607 72.7468 50.1985 73.9232C49.8719 74.9433 49.7534 76.0185 49.8501 77.0852C49.9468 78.1519 50.2567 79.1883 50.7615 80.1329C51.1157 80.8783 51.6776 81.5056 52.3797 81.9394C53.0818 82.3731 53.8942 82.5949 54.7193 82.5782L56.7696 72.4191L52.4421 68.8395L47.4004 70.9402C43.6359 75.4526 42.3503 76.6794 43.0813 80.1077Z" fill="#5A9DFF"/>
</g>
</g>
<path d="M74.8021 77.3096C74.1215 73.1082 69.3066 64.5624 61.6684 64.8902C56.7107 65.1086 54.3916 66.1086 52.2404 67.327C50.487 68.3601 48.8526 69.583 47.3668 70.9738C43.6359 75.4526 42.3251 76.6794 43.0477 80.1077C42.9884 81.4752 43.2027 82.8407 43.6779 84.1243C44.8207 87.1745 45.6022 89.166 46.5937 90.6197C46.2912 92.0398 45.5013 95.7875 45.4593 96.6446C45.4173 97.5017 47.9802 96.905 49.2742 96.5773C51.6774 101.955 56.0805 105.686 57.4502 106.115C59.8366 106.862 63.6095 102.938 65.6094 99.8965C67.6093 96.8546 66.0967 93.4347 66.1051 92.0734C66.1135 90.7121 70.6007 87.7207 72.2644 86.7712C73.9282 85.8217 75.4743 81.5026 74.8021 77.3096Z" stroke="#263238" stroke-miterlimit="10"/>
<path d="M47.6357 88.082L48.476 90.4853C48.476 90.4853 50.2826 91.0819 52.4841 88.6787" stroke="#263238" stroke-miterlimit="10" stroke-linecap="round"/>
<path d="M53.8454 99.3083C53.8454 99.3083 55.8453 99.1066 56.6519 96.3" stroke="#263238" stroke-miterlimit="10" stroke-linecap="round"/>
<path d="M46.2324 86.0738C46.2324 86.0738 46.829 84.2672 50.4338 84.2672" stroke="#263238" stroke-miterlimit="10" stroke-linecap="round"/>
<path d="M64.7103 61.5458C62.0909 61.1691 59.4494 60.967 56.8032 60.9408C56.8032 60.9408 48.8877 56.3781 41.2831 61.2433C33.6785 66.1086 37.3338 74.6291 37.3338 76.755C37.3338 78.8809 34.8969 78.8893 36.4178 81.6286C37.9388 84.368 43.0813 82.8555 43.0813 82.8555C43.1357 81.8223 43.4087 80.8124 43.8824 79.8926C44.356 78.9728 45.0195 78.164 45.829 77.5196C48.5684 75.3937 50.7531 74.9316 51.6606 75.545C51.6606 75.545 51.0556 80.1077 51.9631 81.9312C51.9631 81.9312 55.005 83.4521 55.9209 83.4521C56.8368 83.4521 55.3243 84.7377 58.3577 85.8805C58.9104 86.079 59.5015 86.1466 60.0847 86.0781C60.6679 86.0096 61.2273 85.8067 61.7188 85.4856C62.1642 83.6369 63.1389 80.8556 64.9539 81.5026C67.6176 82.4521 70.0461 89.0063 66.4413 91.2415C70.7771 92.0314 76.0289 84.3596 76.3398 77.3684C76.6507 70.3772 69.2142 62.3357 64.7103 61.5458Z" fill="#263238"/>
<path d="M51.7951 72.5451C51.7951 72.5451 54.0302 71.3435 56.7696 73.9148C59.5089 76.4861 64.8363 79.9229 71.8947 78.0322" stroke="white" stroke-width="0.5" stroke-linecap="round" stroke-linejoin="round"/>
<path d="M51.4842 70.4865C51.4842 70.4865 53.0219 68.0832 55.5932 68.0832C58.1644 68.0832 64.1725 71.6881 68.9705 71.6881" stroke="white" stroke-width="0.5" stroke-linecap="round" stroke-linejoin="round"/>
<path d="M49.7364 75.1164C49.7364 75.1164 46.8206 71.52 44.0813 74.4358C41.3419 77.3516 43.0813 80.1077 43.0813 80.1077" stroke="white" stroke-width="0.5" stroke-linecap="round" stroke-linejoin="round"/>
<path d="M38.0816 77.5197C39.7525 76.0128 40.7912 73.9294 40.989 71.6881C41.3335 67.9152 46.4845 64.6549 49.7364 67.7471" stroke="white" stroke-width="0.5" stroke-linecap="round" stroke-linejoin="round"/>
<path d="M43.3922 63.7978C43.3922 63.7978 48.5432 58.8233 52.8286 65.1675" stroke="white" stroke-width="0.5" stroke-linecap="round" stroke-linejoin="round"/>
<path d="M85.3141 308.38C85.3141 308.38 88.482 313.304 88.129 316.472L87.7845 319.64C87.7845 319.64 76.1634 322.824 73.7013 322.824C71.2393 322.824 58.2065 321.589 58.2065 321.589L57.6435 319.354C57.6041 319.189 57.6226 319.015 57.6961 318.862C57.7695 318.709 57.8934 318.586 58.0468 318.514L69.668 313.094L73.3316 309.086L85.3141 308.38Z" fill="white" stroke="#263238" stroke-width="1.00396" stroke-miterlimit="10"/>
<path d="M75.4659 320.345C78.617 320.589 84.5998 318.665 88.0702 317.438L87.8265 319.64C87.8265 319.64 76.1634 322.824 73.7013 322.824C71.2393 322.824 58.2065 321.589 58.2065 321.589L57.8031 319.993C59.887 320.001 71.2981 320.026 75.4659 320.345Z" fill="#5A9DFF" stroke="#263238" stroke-width="1.00396" stroke-miterlimit="10"/>
<path d="M69.6848 313.094L52.7698 320.455C52.7698 320.455 51.3245 324.076 52.7698 324.799C54.2151 325.522 85.7258 324.799 85.7258 324.799C85.7258 324.799 87.9022 319.077 84.4654 315.237C81.0286 311.396 69.6848 313.094 69.6848 313.094Z" fill="white" stroke="#263238" stroke-width="1.00396" stroke-miterlimit="10"/>
<path d="M85.7258 324.799C85.7258 324.799 54.2151 325.522 52.7698 324.799C52.0724 324.446 52.0472 323.429 52.2068 322.463H86.2804C86.1691 323.257 85.9834 324.039 85.7258 324.799Z" fill="#5A9DFF" stroke="#263238" stroke-width="1.00396" stroke-miterlimit="10"/>
<path d="M61.6852 185.194C61.6852 185.194 57.2653 204.781 55.5932 217.032C53.921 229.284 52.9379 253.828 53.2908 256.643C53.6437 259.458 71.2393 306.624 71.2393 306.624L72.9955 310.825L85.3141 308.363C85.3141 308.363 79.6842 290.414 77.575 280.558C75.4659 270.701 70.8528 254.509 70.8528 251.694C70.8528 248.879 81.7765 195.118 82.5579 191.588C83.3394 188.059 86.8854 182.639 86.8854 182.639L63.2986 182.16L61.6852 185.194Z" fill="#5A9DFF" stroke="#263238" stroke-width="1.00396" stroke-miterlimit="10"/>
<path d="M61.6853 185.194C61.6853 185.194 59.0972 203.084 60.1643 215.52C61.2315 227.956 63.5255 254.433 63.5255 258.374C63.5255 262.315 69.8864 285.852 70.2478 293.246C70.8108 303.926 70.0209 309.212 70.0209 309.212L69.6428 313.085C69.6428 313.085 77.0625 314.144 78.6842 314.606C80.5574 315.089 82.4904 315.298 84.4234 315.228C84.4234 315.228 87.1207 303.355 87.1207 293.238C87.1207 283.121 84.8771 262.299 83.7596 253.862C82.642 245.426 86.1628 212.881 88.1627 206.806C90.1625 200.731 94.532 187.866 91.591 181.295C88.65 174.724 61.6853 185.194 61.6853 185.194Z" fill="#5A9DFF" stroke="#263238" stroke-width="1.00396" stroke-miterlimit="10"/>
<path d="M94.8597 178.001L94.5908 186.001C94.5908 186.001 89.8012 186.95 83.3478 188.068C78.0204 188.992 64.643 187.824 60.1391 187.387C59.7287 187.351 59.3492 187.154 59.0832 186.839C58.8173 186.524 58.6864 186.117 58.719 185.706L59.156 178.48L94.8597 178.001Z" fill="#263238"/>
<path d="M76.1382 98.2579C76.1382 98.2579 68.5756 106.434 65.727 111.518C62.8785 116.601 61.7525 124.391 60.6853 130.525C59.6182 136.659 62.5087 151.061 61.6937 157.675L59.114 178.505C59.114 178.505 58.5594 179.917 60.4164 181.463C62.2735 183.009 71.3401 183.572 79.5329 183.984C82.5244 184.135 91.4566 182.211 92.9187 182.118C94.6833 182.009 94.7421 179.766 94.8177 178.001C95.1707 169.707 96.6664 147.599 97.6495 137.97C99.6746 118.332 88.5912 99.3755 76.1382 98.2579Z" fill="white" stroke="#263238" stroke-width="1.00396" stroke-miterlimit="10"/>
<g style="mix-blend-mode:multiply">
<path d="M96.7252 149.137C97.0613 144.776 97.3974 140.818 97.6915 137.97C97.7755 137.13 97.8259 136.289 97.8679 135.449L77.7767 138.81L60.5172 132.928C60.5191 136.499 60.7211 140.068 61.1222 143.617L78.054 148.356L96.7252 149.137Z" fill="#5A9DFF"/>
</g>
<g style="mix-blend-mode:multiply">
<path d="M75.3903 99.0814C74.2475 100.35 71.9787 102.93 69.8192 105.669L82.5748 118.635L86.7762 116.954L75.3903 99.0814Z" fill="#5A9DFF"/>
</g>
<path d="M76.1382 98.2579C76.1382 98.2579 68.5756 106.434 65.727 111.518C64.8824 113.063 64.1982 114.69 63.6851 116.374L78.8943 98.8041C77.9958 98.5319 77.0726 98.349 76.1382 98.2579Z" fill="#263238"/>
<g style="mix-blend-mode:multiply">
<path d="M61.2735 127.214L77.7767 132.642L97.8175 130.34C97.5034 125.348 96.3943 120.437 94.532 115.795L78.3733 122.273L63.9288 115.727C62.7477 119.482 61.8599 123.322 61.2735 127.214Z" fill="#5A9DFF"/>
</g>
<g style="mix-blend-mode:multiply">
<path d="M89.6836 169.707C81.3132 171.113 72.7246 170.411 64.6935 167.666L60.6685 166.287L59.4165 176.371L64.0044 177.657C72.7264 180.095 81.8422 180.797 90.8348 179.724L94.5404 179.278C94.7333 178.87 94.8419 178.427 94.8597 177.976C94.9606 175.732 95.137 172.472 95.3639 168.733L89.6836 169.707Z" fill="#5A9DFF"/>
</g>
<g style="mix-blend-mode:multiply">
<path d="M91.9271 155.977C83.5565 157.388 74.9658 156.683 66.937 153.927L61.8113 152.171C61.9384 154.001 61.9131 155.84 61.7357 157.666L61.1391 162.515L66.248 163.943C74.9665 166.384 84.0796 167.089 93.0699 166.019L95.5908 165.716C95.8009 162.355 96.0445 158.775 96.305 155.238L91.9271 155.977Z" fill="#5A9DFF"/>
</g>
<path d="M13.0926 120.443L29.3398 133.506L30.0401 132.635L13.7929 119.572L13.0926 120.443Z" fill="#263238"/>
<path d="M83.9612 107.325C83.9612 107.325 89.9188 111.383 90.0533 120.971C90.1121 125.172 89.6752 129.096 88.7088 135.978C87.7425 142.86 81.7429 165.271 77.0709 167.993C72.3989 170.716 65.1472 165.573 65.1472 165.573L30.0737 142.289L21.5952 135.441L17.3938 127.508L18.713 124.987L29.0569 132.92L23.4858 127.769L24.5782 126.382L26.5949 127.786L32.4769 129.987L33.7625 138.39L35.5776 139.634L69.1302 151.893C69.1302 151.893 68.71 133.836 69.0209 130.382C69.3318 126.928 69.7604 118.248 73.4576 111.955" fill="white"/>
<mask id="mask4_1_232" style="mask-type:luminance" maskUnits="userSpaceOnUse" x="17" y="107" width="74" height="62">
<path d="M83.9612 107.325C83.9612 107.325 89.9188 111.383 90.0533 120.971C90.1121 125.172 89.6752 129.096 88.7088 135.978C87.7425 142.86 81.7429 165.271 77.0709 167.993C72.3989 170.716 65.1472 165.573 65.1472 165.573L30.0737 142.289L21.5952 135.441L17.3938 127.508L18.713 124.987L29.0569 132.92L23.4858 127.769L24.5782 126.382L26.5949 127.786L32.4769 129.987L33.7625 138.39L35.5776 139.634L69.1302 151.893C69.1302 151.893 68.71 133.836 69.0209 130.382C69.3318 126.928 69.7604 118.248 73.4576 111.955" fill="white"/>
</mask>
<g mask="url(#mask4_1_232)">
<g style="mix-blend-mode:multiply" opacity="0.5">
<path d="M68.8949 138.247C68.8949 144.482 69.105 151.893 69.105 151.893L35.586 139.684L33.7709 138.44L32.4853 130.038L26.6033 127.836L24.595 126.407L23.5026 127.794L29.0569 132.92L18.713 124.987L17.461 127.466L21.6624 135.399L30.1409 142.289L32.2752 143.709L78.617 158.641L68.8949 138.247Z" fill="#5A9DFF"/>
</g>
</g>
<path d="M83.9612 107.325C83.9612 107.325 89.9188 111.383 90.0533 120.971C90.1121 125.172 89.6752 129.096 88.7088 135.978C87.7425 142.86 81.7429 165.271 77.0709 167.993C72.3989 170.716 65.1472 165.573 65.1472 165.573L30.0737 142.289L21.5952 135.441L17.3938 127.508L18.713 124.987L29.0569 132.92L23.4858 127.769L24.5782 126.382L26.5949 127.786L32.4769 129.987L33.7625 138.39L35.5776 139.634L69.1302 151.893C69.1302 151.893 68.71 133.836 69.0209 130.382C69.3318 126.928 69.7604 118.248 73.4576 111.955" stroke="#263238" stroke-width="1.00396" stroke-miterlimit="10"/>
<path d="M69.1302 151.893L81.9361 161.137L85.2553 155.255C85.2553 155.255 87.5492 153.448 87.8854 152.087C88.2215 150.725 87.7929 148.515 88.1374 147.154C88.4819 145.793 90.1961 144.516 90.3558 141.222C90.5154 137.928 90.3558 135.18 90.3558 135.18C90.3558 135.18 93.1287 123.777 92.8262 118.82C92.5237 113.862 87.7425 105.098 83.9108 104.905C80.0791 104.711 75.0962 105.291 71.2309 111.139C67.3656 116.988 68.1554 134.062 67.5504 135.13C66.9454 136.197 67.7857 141.465 67.7857 141.465C67.4499 141.716 67.1713 142.035 66.9684 142.402C66.7656 142.768 66.6432 143.174 66.6093 143.591C66.5421 144.961 68.021 148.331 68.021 148.331L69.1302 151.893Z" fill="white" stroke="#263238" stroke-width="1.00396" stroke-miterlimit="10"/>
<g style="mix-blend-mode:multiply">
<path d="M67.8866 130.743C67.9129 132.21 67.8032 133.675 67.5589 135.121C67.0211 136.079 67.6345 140.407 67.7689 141.289C74.9717 143.526 82.588 144.101 90.0449 142.97C90.2051 142.385 90.3009 141.785 90.3306 141.18C90.4987 137.894 90.3306 135.138 90.3306 135.138C90.3306 135.138 90.5743 134.121 90.9104 132.575C83.1877 133.066 75.4345 132.449 67.8866 130.743Z" fill="#5A9DFF"/>
</g>
<g style="mix-blend-mode:multiply">
<path d="M70.7099 112.072C69.5083 114.484 68.8361 118.105 68.4496 121.778C76.0778 124.689 84.3023 125.69 92.4061 124.693C92.7294 122.75 92.8729 120.781 92.8347 118.811C92.6891 117.254 92.3213 115.726 91.7423 114.274C84.6663 114.439 77.5983 113.699 70.7099 112.072Z" fill="#5A9DFF"/>
</g>
<path d="M68.021 148.423L69.105 151.893L81.9109 161.136L85.2301 155.254C85.2301 155.254 87.524 153.448 87.8601 152.087C87.9201 151.85 87.9567 151.608 87.9694 151.364C81.221 151.247 74.5159 150.259 68.021 148.423Z" fill="#263238"/>
<path d="M77.2894 314.497C77.2894 314.497 77.5751 307.22 78.9699 296.582C80.3648 285.944 77.0121 270.836 76.4491 268.315C75.8861 265.794 76.7348 260.198 76.1718 258.232C75.6088 256.265 72.8863 247.879 74.4912 238.149C76.0962 228.418 77.3986 202.697 77.3986 202.697C77.3986 202.697 73.3568 199.412 72.172 195.134C70.9872 190.857 71.8947 189.513 71.8947 189.513" stroke="#263238" stroke-width="1.00396" stroke-miterlimit="10"/>
<path d="M79.1632 189.908L77.6086 198.512" stroke="#263238" stroke-width="1.00396" stroke-miterlimit="10"/>
</svg>
